<svg xmlns="http://www.w3.org/2000/svg" viewBox="0 0 100 100" fill="none">
  <defs>
    <linearGradient id="favEmeraldGrad" x1="0%" y1="100%" x2="100%" y2="0%">
      <stop offset="0%" stop-color="#10B981" />
      <stop offset="100%" stop-color="#34D399" />
    </linearGradient>
    <linearGradient id="favBlueGrad" x1="0%" y1="0%" x2="100%" y2="100%">
      <stop offset="0%" stop-color="#3B82F6" />
      <stop offset="100%" stop-color="#2563EB" />
    </linearGradient>
  </defs>
  
  <!-- Tech Ribbon - representing flow, automation and database tracking -->
  <path 
    d="M25 80C25 50 40 30 75 30C85 30 90 40 80 48C70 56 55 50 45 68C35 86 25 80 25 80Z" 
    fill="url(#favBlueGrad)" 
  />
  
  <!-- Wealth Ribbon - representing green financial growth intersecting with technology -->
  <path 
    d="M35 80C42 65 52 55 75 55C90 55 95 35 75 35C55 35 42 55 35 80Z" 
    fill="url(#favEmeraldGrad)" 
    opacity="0.9"
  />
  
  <!-- Dynamic Spark - representing active intelligence and predictive insights -->
  <path 
    d="M75 35L77 40L82 42L77 44L75 49L73 44L68 42L73 40Z" 
    fill="#F59E0B" 
  />
</svg>